<svg height="689" viewBox="-8.1 .8 1564.3 428.4" width="2500" xmlns="http://www.w3.org/2000/svg"><path d="m597.3 88c62.4 0 107.4 48.8 107.4 118.8 0 69.9-45 118.7-107.4 118.7-62.3 0-107.3-48.8-107.3-118.7 0-70 45-118.8 107.3-118.8zm0 36.3c-38.9 0-66.2 32.4-66.2 82.5 0 50 27.3 82.5 66.2 82.5s66.2-32.5 66.2-82.5c0-50.1-27.3-82.5-66.2-82.5zm174.7 180v75.5h-38.6v-226.3h38.6v18c10.6-12.6 26.6-21.2 48.5-21.2 47.2 0 74.2 39.8 74.2 87.6s-27 87.6-74.2 87.6c-21.9 0-37.9-8.6-48.5-21.2zm-1-61.3c0 31.2 18 48.8 41.8 48.8 27.9 0 43-21.8 43-53.9s-15.1-53.9-43-53.9c-23.8 0-41.8 17.3-41.8 49.1zm146.1-5.2c0-49.4 31.5-87.6 80.4-87.6 48.8 0 74.9 36.9 74.9 83.2v12.8h-118.3c2.9 28.9 20.2 46.5 45 46.5 19 0 34.1-9.6 39.2-26.9l33.1 12.5c-11.9 29.5-38.6 47.2-72.3 47.2-48.2 0-82-35.7-82-87.7zm38.9-20.5h77.5c-.3-18.6-11.9-34.7-36.3-34.7-20 0-35.4 11.9-41.2 34.7zm145.3-63.9h38.6v18c9.6-11.2 24.7-21.2 46.6-21.2 35.3 0 56.5 24.4 56.5 60.7v111h-38.5v-99.8c0-20.8-8.4-35.9-29.6-35.9-17.4 0-35 12.8-35 36.9v98.8h-38.6zm301.3-61.9 87.4 230.5h-41.5l-19.9-52.7h-99.6l-19.6 52.7h-40.9l87.5-230.5zm-60.1 141.9h72.6l-36.6-96.3zm172.5-141.2h41.2v230.4h-41.2zm-1119.2 83.9c31.4 34.8 36.8 85.9 13.3 126.5-15.2 26.7-41.3 45.5-71.4 51.7-14.4 44.6-56.1 74.8-103 74.7-30.8.2-60.1-12.9-80.5-35.9-45.9 9.9-92.9-11-116.3-51.7-15.6-26.5-18.9-58.4-9.2-87.6-31.4-34.7-36.8-85.9-13.3-126.4 15.3-26.7 41.3-45.6 71.4-51.7 14.4-44.6 56.1-74.8 103-74.7 30.8-.2 60.1 12.9 80.5 35.9 45.9-9.9 92.9 11 116.3 51.7 15.5 26.5 18.9 58.4 9.2 87.6zm-80.9 144.6v-99.5c0-.4-.3-.8-.7-.9l-36-20.8v120.1c0 5-2.7 9.7-7.1 12.1l-85.3 49.3c-.7.4-1.9 1-2.5 1.4 14.4 12 32.6 18.6 51.4 18.5 44.3 0 80.2-35.9 80.2-80.2zm-252.7 6.6c22.2 38.4 71.3 51.5 109.7 29.4l86.2-49.7c.4-.3.6-.7.5-1.1v-41.6l-104.1 60c-4.4 2.6-9.7 2.6-14 0l-85.4-49.2c-.8-.4-1.9-1.1-2.5-1.5-3.2 18.5.2 37.5 9.6 53.7zm-22.5-186c-22.1 38.4-8.9 87.4 29.4 109.6l86.2 49.7c.4.2.9.2 1.3-.1l36-20.8-104.1-60c-4.4-2.5-7.1-7.2-7-12.2v-98.4-3c-17.6 6.5-32.4 18.9-41.8 35.2zm296.3 68.9c4.3 2.5 7 7.1 7 12.1v101.4c17.6-6.5 32.4-18.9 41.7-35.2 22.2-38.3 9.1-87.4-29.3-109.6l-86.3-49.7c-.4-.2-.9-.1-1.2.1l-36.1 20.8zm35.9-54h-.1zm0 0c3.2-18.4-.2-37.4-9.6-53.6-22.1-38.4-71.2-51.6-109.6-29.4l-86.3 49.7c-.3.2-.5.6-.5 1.1v41.6l104.2-60.1c4.3-2.5 9.7-2.5 14 0l85.3 49.2c.8.4 1.9 1.1 2.5 1.5zm-225.6 74.1.1-120.1c-.1-5 2.6-9.6 7-12.1l85.3-49.2c.7-.5 1.9-1.1 2.5-1.4-14.4-12-32.6-18.6-51.3-18.6-44.4 0-80.3 35.9-80.4 80.2v99.5c.1.4.3.8.7 1zm19.6 11.4 46.4 26.7 46.4-26.7v-53.5l-46.4-26.8-46.4 26.8z" fill-rule="evenodd"/></svg>